# xmcd
#
# Track frame offsets: 
#        150
#        34988
#        62460
#        96052
#        130073
#        159407
#        185811
#        195790
#        223480
#
# Disc length: 3332 seconds
#
# Revision: 1
# Processed by: cddbd v1.5.2PL0 Copyright (c) Steve Scherf et al.
# Submitted via: ExactAudioCopyFreeDBPlugin 1.0
#
DISCID=7b0d0209
DTITLE=Perico Sambeat Sextet - Ziribuye
DYEAR=2005
DGENRE=Jazz
TTITLE0=Sunwind
TTITLE1=Cató-scopio
TTITLE2=Soliloquio
TTITLE3=Cyborg
TTITLE4=Rosa del vents
TTITLE5=Ziribuye
TTITLE6=Maya
TTITLE7=Epicuro
TTITLE8=Ni Mari ni Hostias
EXTD=YEAR: 2005
EXTT0=
EXTT1=
EXTT2=
EXTT3=
EXTT4=
EXTT5=
EXTT6=
EXTT7=
EXTT8=
PLAYORDER=
